<svg width="24" height="24" viewBox="0 0 24 24" fill="none" xmlns="http://www.w3.org/2000/svg">
<g id="Delete/Cancel Stroke">
<g id="Union">
<path d="M16.2426 7.75729C16.4379 7.95255 16.4379 8.26913 16.2426 8.4644L12.7071 11.9999L16.2426 15.5355C16.4379 15.7307 16.4379 16.0473 16.2426 16.2426C16.0474 16.4378 15.7308 16.4378 15.5355 16.2426L12 12.707L8.46447 16.2426C8.2692 16.4378 7.95262 16.4378 7.75736 16.2426C7.5621 16.0473 7.5621 15.7307 7.75736 15.5355L11.2929 11.9999L7.75736 8.4644C7.5621 8.26913 7.5621 7.95255 7.75736 7.75729C7.95262 7.56203 8.2692 7.56203 8.46447 7.75729L12 11.2928L15.5355 7.75729C15.7308 7.56203 16.0474 7.56203 16.2426 7.75729Z" fill="#D9127C"/>
<path fill-rule="evenodd" clip-rule="evenodd" d="M22 12C22 17.5228 17.5228 22 12 22C6.47715 22 2 17.5228 2 12C2 6.47715 6.47715 2 12 2C17.5228 2 22 6.47715 22 12ZM21 12C21 16.9706 16.9706 21 12 21C7.02944 21 3 16.9706 3 12C3 7.02944 7.02944 3 12 3C16.9706 3 21 7.02944 21 12Z" fill="#D9127C"/>
</g>
</g>
</svg>
